<svg xmlns="http://www.w3.org/2000/svg" width="1920" height="1080"><path d="M744,1301L485,1312L1489,1347Z" fill="#8fb676" stroke="#8fb676" stroke-width="1.51"/><path d="M1065,1288L744,1301L1489,1347Z" fill="#84b56e" stroke="#84b56e" stroke-width="1.51"/><path d="M1042,-238L1599,-239L1787,-266Z" fill="#b38345" stroke="#b38345" stroke-width="1.51"/><path d="M725,-268L1042,-238L1787,-266Z" fill="#cd8d56" stroke="#cd8d56" stroke-width="1.51"/><path d="M1808,1307L1489,1347L1952,1317Z" fill="#33924d" stroke="#33924d" stroke-width="1.51"/><path d="M1787,-266L1949,-226L2025,-220Z" fill="#876a3a" stroke="#876a3a" stroke-width="1.51"/><path d="M2025,-220L1973,-91L2037,-37Z" fill="#926c36" stroke="#926c36" stroke-width="1.51"/><path d="M2031,643L1986,839L2043,862Z" fill="#74b460" stroke="#74b460" stroke-width="1.51"/><path d="M2025,-220L2037,-37L2068,146Z" fill="#95743b" stroke="#95743b" stroke-width="1.51"/><path d="M2031,643L2043,862L2087,511Z" fill="#82b76a" stroke="#82b76a" stroke-width="1.51"/><path d="M2087,511L2043,862L2094,999Z" fill="#70ad5c" stroke="#70ad5c" stroke-width="1.51"/><path d="M2025,-220L2068,146L2097,286Z" fill="#988144" stroke="#988144" stroke-width="1.51"/><path d="M2085,425L2087,511L2097,286Z" fill="#91ae68" stroke="#91ae68" stroke-width="1.51"/><path d="M1914,1177L1952,1317L2118,1294Z" fill="#118747" stroke="#118747" stroke-width="1.51"/><path d="M1914,1177L2118,1294L2142,1111Z" fill="#168a49" stroke="#168a49" stroke-width="1.51"/><path d="M2094,999L1914,1177L2142,1111Z" fill="#33964f" stroke="#33964f" stroke-width="1.51"/><path d="M2097,286L2087,511L2142,1111Z" fill="#83b36c" stroke="#83b36c" stroke-width="1.51"/><path d="M2087,511L2094,999L2142,1111Z" fill="#60a453" stroke="#60a453" stroke-width="1.51"/><path d="M1893,1026L1914,1177L2094,999Z" fill="#3da255" stroke="#3da255" stroke-width="1.51"/><path d="M2068,146L1946,239L2097,286Z" fill="#989c54" stroke="#989c54" stroke-width="1.51"/><path d="M1953,414L2085,425L2097,286Z" fill="#94b066" stroke="#94b066" stroke-width="1.51"/><path d="M2037,-37L1922,26L2068,146Z" fill="#9c8244" stroke="#9c8244" stroke-width="1.51"/><path d="M1959,546L2031,643L2087,511Z" fill="#90be7c" stroke="#90be7c" stroke-width="1.51"/><path d="M2085,425L1953,414L2087,511Z" fill="#93b671" stroke="#93b671" stroke-width="1.51"/><path d="M2043,862L1893,1026L2094,999Z" fill="#53a756" stroke="#53a756" stroke-width="1.51"/><path d="M1946,239L1953,414L2097,286Z" fill="#99ac61" stroke="#99ac61" stroke-width="1.51"/><path d="M1946,645L1986,839L2031,643Z" fill="#82bc69" stroke="#82bc69" stroke-width="1.51"/><path d="M1953,414L1959,546L2087,511Z" fill="#95bf7a" stroke="#95bf7a" stroke-width="1.51"/><path d="M1986,839L1893,1026L2043,862Z" fill="#60af59" stroke="#60af59" stroke-width="1.51"/><path d="M1922,26L1946,239L2068,146Z" fill="#9e944e" stroke="#9e944e" stroke-width="1.51"/><path d="M1949,-226L1973,-91L2025,-220Z" fill="#8b6936" stroke="#8b6936" stroke-width="1.51"/><path d="M1959,546L1946,645L2031,643Z" fill="#8ec278" stroke="#8ec278" stroke-width="1.51"/><path d="M1973,-91L1922,26L2037,-37Z" fill="#997a3f" stroke="#997a3f" stroke-width="1.51"/><path d="M1776,151L1794,189L1922,26Z" fill="#ab9f54" stroke="#ab9f54" stroke-width="1.51"/><path d="M1922,26L1794,189L1946,239Z" fill="#a59f54" stroke="#a59f54" stroke-width="1.51"/><path d="M1949,-226L1834,-49L1973,-91Z" fill="#98753a" stroke="#98753a" stroke-width="1.51"/><path d="M1770,894L1893,1026L1986,839Z" fill="#65b75d" stroke="#65b75d" stroke-width="1.51"/><path d="M1946,645L1822,679L1986,839Z" fill="#83c26b" stroke="#83c26b" stroke-width="1.51"/><path d="M1822,679L1770,894L1986,839Z" fill="#7dc166" stroke="#7dc166" stroke-width="1.51"/><path d="M1893,1026L1832,1111L1914,1177Z" fill="#3da557" stroke="#3da557" stroke-width="1.51"/><path d="M1946,239L1725,373L1953,414Z" fill="#a2bc6a" stroke="#a2bc6a" stroke-width="1.51"/><path d="M1953,414L1760,477L1959,546Z" fill="#9dc87e" stroke="#9dc87e" stroke-width="1.51"/><path d="M1834,-49L1922,26L1973,-91Z" fill="#9f8142" stroke="#9f8142" stroke-width="1.51"/><path d="M1794,189L1725,373L1946,239Z" fill="#aab663" stroke="#aab663" stroke-width="1.51"/><path d="M1787,-266L1834,-49L1949,-226Z" fill="#96743c" stroke="#96743c" stroke-width="1.51"/><path d="M1914,1177L1808,1307L1952,1317Z" fill="#1c904c" stroke="#1c904c" stroke-width="1.51"/><path d="M1822,679L1946,645L1959,546Z" fill="#91c97a" stroke="#91c97a" stroke-width="1.51"/><path d="M1760,477L1822,679L1959,546Z" fill="#9fd085" stroke="#9fd085" stroke-width="1.51"/><path d="M1725,373L1760,477L1953,414Z" fill="#a7c978" stroke="#a7c978" stroke-width="1.51"/><path d="M1770,894L1757,948L1893,1026Z" fill="#67b95f" stroke="#67b95f" stroke-width="1.51"/><path d="M1834,-49L1776,151L1922,26Z" fill="#aa904c" stroke="#aa904c" stroke-width="1.51"/><path d="M1832,1111L1808,1307L1914,1177Z" fill="#2a9d52" stroke="#2a9d52" stroke-width="1.51"/><path d="M1042,-238L1143,-195L1599,-239Z" fill="#cc8d52" stroke="#cc8d52" stroke-width="1.51"/><path d="M1757,948L1832,1111L1893,1026Z" fill="#55b25d" stroke="#55b25d" stroke-width="1.51"/><path d="M1599,-239L1666,-13L1787,-266Z" fill="#a98043" stroke="#a98043" stroke-width="1.51"/><path d="M1605,1256L1489,1347L1808,1307Z" fill="#479d52" stroke="#479d52" stroke-width="1.51"/><path d="M1697,1076L1605,1256L1808,1307Z" fill="#42a657" stroke="#42a657" stroke-width="1.51"/><path d="M1760,477L1636,630L1822,679Z" fill="#a7d785" stroke="#a7d785" stroke-width="1.51"/><path d="M1669,812L1770,894L1822,679Z" fill="#8bcb6b" stroke="#8bcb6b" stroke-width="1.51"/><path d="M1757,948L1692,1011L1832,1111Z" fill="#5eb860" stroke="#5eb860" stroke-width="1.51"/><path d="M1692,1011L1697,1076L1832,1111Z" fill="#58b55e" stroke="#58b55e" stroke-width="1.51"/><path d="M1697,1076L1808,1307L1832,1111Z" fill="#3fa757" stroke="#3fa757" stroke-width="1.51"/><path d="M1787,-266L1666,-13L1834,-49Z" fill="#a98141" stroke="#a98141" stroke-width="1.51"/><path d="M1666,-13L1776,151L1834,-49Z" fill="#b2954e" stroke="#b2954e" stroke-width="1.51"/><path d="M1666,-13L1647,111L1776,151Z" fill="#baa155" stroke="#baa155" stroke-width="1.51"/><path d="M1143,-195L1429,-169L1599,-239Z" fill="#c38b49" stroke="#c38b49" stroke-width="1.51"/><path d="M1636,630L1669,812L1822,679Z" fill="#9ed476" stroke="#9ed476" stroke-width="1.51"/><path d="M1628,187L1725,373L1794,189Z" fill="#b6bb65" stroke="#b6bb65" stroke-width="1.51"/><path d="M1776,151L1628,187L1794,189Z" fill="#b5af5d" stroke="#b5af5d" stroke-width="1.51"/><path d="M1579,507L1636,630L1760,477Z" fill="#b7e090" stroke="#b7e090" stroke-width="1.51"/><path d="M1725,373L1660,410L1760,477Z" fill="#b2d17c" stroke="#b2d17c" stroke-width="1.51"/><path d="M1647,111L1628,187L1776,151Z" fill="#baae5c" stroke="#baae5c" stroke-width="1.51"/><path d="M1669,812L1757,948L1770,894Z" fill="#7fc664" stroke="#7fc664" stroke-width="1.51"/><path d="M1669,812L1692,1011L1757,948Z" fill="#79c465" stroke="#79c465" stroke-width="1.51"/><path d="M1660,410L1579,507L1760,477Z" fill="#b7d984" stroke="#b7d984" stroke-width="1.51"/><path d="M1628,187L1660,410L1725,373Z" fill="#b9c970" stroke="#b9c970" stroke-width="1.51"/><path d="M1628,187L1458,251L1660,410Z" fill="#c4c86c" stroke="#c4c86c" stroke-width="1.51"/><path d="M1599,-239L1450,-58L1666,-13Z" fill="#be8e46" stroke="#be8e46" stroke-width="1.51"/><path d="M1486,777L1509,1049L1669,812Z" fill="#96d269" stroke="#96d269" stroke-width="1.51"/><path d="M1636,630L1508,743L1669,812Z" fill="#a7d975" stroke="#a7d975" stroke-width="1.51"/><path d="M1669,812L1509,1049L1692,1011Z" fill="#7ec766" stroke="#7ec766" stroke-width="1.51"/><path d="M1692,1011L1509,1049L1697,1076Z" fill="#6bbf63" stroke="#6bbf63" stroke-width="1.51"/><path d="M1509,1049L1605,1256L1697,1076Z" fill="#61b75e" stroke="#61b75e" stroke-width="1.51"/><path d="M1486,777L1396,874L1509,1049Z" fill="#9ed569" stroke="#9ed569" stroke-width="1.51"/><path d="M1509,1049L1458,1188L1605,1256Z" fill="#65b75e" stroke="#65b75e" stroke-width="1.51"/><path d="M1458,251L1507,443L1660,410Z" fill="#c7d678" stroke="#c7d678" stroke-width="1.51"/><path d="M1464,118L1647,111L1666,-13Z" fill="#c5a556" stroke="#c5a556" stroke-width="1.51"/><path d="M1450,-58L1464,118L1666,-13Z" fill="#cba052" stroke="#cba052" stroke-width="1.51"/><path d="M1508,743L1486,777L1669,812Z" fill="#a6d972" stroke="#a6d972" stroke-width="1.51"/><path d="M1143,-195L1361,-153L1429,-169Z" fill="#cf914f" stroke="#cf914f" stroke-width="1.51"/><path d="M1429,-169L1450,-58L1599,-239Z" fill="#c08b45" stroke="#c08b45" stroke-width="1.51"/><path d="M1507,443L1579,507L1660,410Z" fill="#c2dc85" stroke="#c2dc85" stroke-width="1.51"/><path d="M1464,118L1628,187L1647,111Z" fill="#c7b25d" stroke="#c7b25d" stroke-width="1.51"/><path d="M1579,507L1446,590L1636,630Z" fill="#c1e48d" stroke="#c1e48d" stroke-width="1.51"/><path d="M1446,590L1508,743L1636,630Z" fill="#bbe281" stroke="#bbe281" stroke-width="1.51"/><path d="M1464,118L1458,251L1628,187Z" fill="#cdbd62" stroke="#cdbd62" stroke-width="1.51"/><path d="M1458,1188L1489,1347L1605,1256Z" fill="#5baa57" stroke="#5baa57" stroke-width="1.51"/><path d="M1458,251L1395,333L1507,443Z" fill="#d2d776" stroke="#d2d776" stroke-width="1.51"/><path d="M1507,443L1446,590L1579,507Z" fill="#cae68f" stroke="#cae68f" stroke-width="1.51"/><path d="M1378,1239L1227,1230L1489,1347Z" fill="#6eb15c" stroke="#6eb15c" stroke-width="1.51"/><path d="M1227,1230L1065,1288L1489,1347Z" fill="#78b361" stroke="#78b361" stroke-width="1.51"/><path d="M1458,1188L1378,1239L1489,1347Z" fill="#66af58" stroke="#66af58" stroke-width="1.51"/><path d="M1382,601L1446,590L1507,443Z" fill="#d2ec94" stroke="#d2ec94" stroke-width="1.51"/><path d="M1395,333L1382,601L1507,443Z" fill="#d5e589" stroke="#d5e589" stroke-width="1.51"/><path d="M1382,601L1486,777L1508,743Z" fill="#bde37a" stroke="#bde37a" stroke-width="1.51"/><path d="M1446,590L1382,601L1508,743Z" fill="#c6e784" stroke="#c6e784" stroke-width="1.51"/><path d="M1396,874L1275,984L1509,1049Z" fill="#99d36b" stroke="#99d36b" stroke-width="1.51"/><path d="M1275,984L1375,1129L1509,1049Z" fill="#8acc69" stroke="#8acc69" stroke-width="1.51"/><path d="M1375,1129L1458,1188L1509,1049Z" fill="#77c061" stroke="#77c061" stroke-width="1.51"/><path d="M1450,-58L1295,82L1464,118Z" fill="#d9aa58" stroke="#d9aa58" stroke-width="1.51"/><path d="M1382,601L1305,641L1486,777Z" fill="#c9e883" stroke="#c9e883" stroke-width="1.51"/><path d="M1305,641L1396,874L1486,777Z" fill="#bce277" stroke="#bce277" stroke-width="1.51"/><path d="M1305,641L1239,811L1396,874Z" fill="#c2e67c" stroke="#c2e67c" stroke-width="1.51"/><path d="M1429,-169L1361,-153L1450,-58Z" fill="#cc9148" stroke="#cc9148" stroke-width="1.51"/><path d="M1361,-153L1343,-121L1450,-58Z" fill="#d1954b" stroke="#d1954b" stroke-width="1.51"/><path d="M1295,82L1291,286L1458,251Z" fill="#dfc86b" stroke="#dfc86b" stroke-width="1.51"/><path d="M1295,82L1458,251L1464,118Z" fill="#dabc62" stroke="#dabc62" stroke-width="1.51"/><path d="M1166,391L1382,601L1395,333Z" fill="#e1e98e" stroke="#e1e98e" stroke-width="1.51"/><path d="M1343,-121L1295,82L1450,-58Z" fill="#d9a054" stroke="#d9a054" stroke-width="1.51"/><path d="M1375,1129L1378,1239L1458,1188Z" fill="#72bb60" stroke="#72bb60" stroke-width="1.51"/><path d="M1291,286L1395,333L1458,251Z" fill="#dbd373" stroke="#dbd373" stroke-width="1.51"/><path d="M1166,391L1163,541L1382,601Z" fill="#e8f39e" stroke="#e8f39e" stroke-width="1.51"/><path d="M1235,697L1239,811L1305,641Z" fill="#d1ec86" stroke="#d1ec86" stroke-width="1.51"/><path d="M1163,541L1305,641L1382,601Z" fill="#ddf197" stroke="#ddf197" stroke-width="1.51"/><path d="M1291,286L1166,391L1395,333Z" fill="#e4de80" stroke="#e4de80" stroke-width="1.51"/><path d="M1225,952L1275,984L1396,874Z" fill="#a9da72" stroke="#a9da72" stroke-width="1.51"/><path d="M1239,811L1225,952L1396,874Z" fill="#b5df74" stroke="#b5df74" stroke-width="1.51"/><path d="M1212,245L1291,286L1295,82Z" fill="#e7cc71" stroke="#e7cc71" stroke-width="1.51"/><path d="M1143,-195L1210,-123L1361,-153Z" fill="#d99553" stroke="#d99553" stroke-width="1.51"/><path d="M1375,1129L1227,1230L1378,1239Z" fill="#78bd65" stroke="#78bd65" stroke-width="1.51"/><path d="M1210,-123L1295,82L1343,-121Z" fill="#dfa057" stroke="#dfa057" stroke-width="1.51"/><path d="M1210,-123L1229,78L1295,82Z" fill="#e7ab5f" stroke="#e7ab5f" stroke-width="1.51"/><path d="M1275,984L1154,1094L1375,1129Z" fill="#94cf70" stroke="#94cf70" stroke-width="1.51"/><path d="M1154,1094L1227,1230L1375,1129Z" fill="#88c66d" stroke="#88c66d" stroke-width="1.51"/><path d="M1210,-123L1343,-121L1361,-153Z" fill="#d6954f" stroke="#d6954f" stroke-width="1.51"/><path d="M1229,78L1212,245L1295,82Z" fill="#e9c06b" stroke="#e9c06b" stroke-width="1.51"/><path d="M1163,541L1235,697L1305,641Z" fill="#dff295" stroke="#dff295" stroke-width="1.51"/><path d="M1212,245L1166,391L1291,286Z" fill="#eadd81" stroke="#eadd81" stroke-width="1.51"/><path d="M1210,-123L1086,72L1229,78Z" fill="#edad65" stroke="#edad65" stroke-width="1.51"/><path d="M1225,952L1154,1094L1275,984Z" fill="#a4d776" stroke="#a4d776" stroke-width="1.51"/><path d="M1013,-61L1086,72L1210,-123Z" fill="#f0a968" stroke="#f0a968" stroke-width="1.51"/><path d="M1086,72L1062,218L1212,245Z" fill="#f5cc7b" stroke="#f5cc7b" stroke-width="1.51"/><path d="M1059,1010L1154,1094L1225,952Z" fill="#a9da7d" stroke="#a9da7d" stroke-width="1.51"/><path d="M1086,72L1212,245L1229,78Z" fill="#f0c270" stroke="#f0c270" stroke-width="1.51"/><path d="M1163,541L1057,715L1235,697Z" fill="#e4f399" stroke="#e4f399" stroke-width="1.51"/><path d="M1057,715L1081,813L1235,697Z" fill="#daef90" stroke="#daef90" stroke-width="1.51"/><path d="M1235,697L1081,813L1239,811Z" fill="#d0eb85" stroke="#d0eb85" stroke-width="1.51"/><path d="M1081,813L1225,952L1239,811Z" fill="#c3e67d" stroke="#c3e67d" stroke-width="1.51"/><path d="M1081,813L1059,1010L1225,952Z" fill="#bce282" stroke="#bce282" stroke-width="1.51"/><path d="M1154,1094L1082,1103L1227,1230Z" fill="#93cc75" stroke="#93cc75" stroke-width="1.51"/><path d="M1082,1103L1065,1288L1227,1230Z" fill="#8bc574" stroke="#8bc574" stroke-width="1.51"/><path d="M1062,218L1166,391L1212,245Z" fill="#f2dc85" stroke="#f2dc85" stroke-width="1.51"/><path d="M1143,-195L1013,-61L1210,-123Z" fill="#e79b5e" stroke="#e79b5e" stroke-width="1.51"/><path d="M1059,1010L1082,1103L1154,1094Z" fill="#a4d67f" stroke="#a4d67f" stroke-width="1.51"/><path d="M995,551L1057,715L1163,541Z" fill="#eff9a9" stroke="#eff9a9" stroke-width="1.51"/><path d="M999,430L995,551L1163,541Z" fill="#f8f9b0" stroke="#f8f9b0" stroke-width="1.51"/><path d="M999,430L1163,541L1166,391Z" fill="#f4f2a2" stroke="#f4f2a2" stroke-width="1.51"/><path d="M1062,218L999,430L1166,391Z" fill="#f6e795" stroke="#f6e795" stroke-width="1.51"/><path d="M881,1238L744,1301L1065,1288Z" fill="#93bc78" stroke="#93bc78" stroke-width="1.51"/><path d="M1042,-238L1013,-61L1143,-195Z" fill="#e59964" stroke="#e59964" stroke-width="1.51"/><path d="M921,-166L1013,-61L1042,-238Z" fill="#ec9c6b" stroke="#ec9c6b" stroke-width="1.51"/><path d="M887,339L999,430L1062,218Z" fill="#fee89c" stroke="#fee89c" stroke-width="1.51"/><path d="M873,280L887,339L1062,218Z" fill="#ffdf96" stroke="#ffdf96" stroke-width="1.51"/><path d="M913,1142L881,1238L1065,1288Z" fill="#97c783" stroke="#97c783" stroke-width="1.51"/><path d="M838,890L893,969L1081,813Z" fill="#cfe991" stroke="#cfe991" stroke-width="1.51"/><path d="M893,969L1059,1010L1081,813Z" fill="#c4e68d" stroke="#c4e68d" stroke-width="1.51"/><path d="M913,1142L1065,1288L1082,1103Z" fill="#98cc81" stroke="#98cc81" stroke-width="1.51"/><path d="M873,128L1062,218L1086,72Z" fill="#fdc883" stroke="#fdc883" stroke-width="1.51"/><path d="M1013,-61L873,128L1086,72Z" fill="#feb87c" stroke="#feb87c" stroke-width="1.51"/><path d="M1057,715L873,674L1081,813Z" fill="#e4f49e" stroke="#e4f49e" stroke-width="1.51"/><path d="M873,674L838,890L1081,813Z" fill="#dfef9a" stroke="#dfef9a" stroke-width="1.51"/><path d="M1059,1010L913,1142L1082,1103Z" fill="#a8d787" stroke="#a8d787" stroke-width="1.51"/><path d="M725,-268L921,-166L1042,-238Z" fill="#e39267" stroke="#e39267" stroke-width="1.51"/><path d="M995,551L873,674L1057,715Z" fill="#f2faad" stroke="#f2faad" stroke-width="1.51"/><path d="M893,969L913,1142L1059,1010Z" fill="#b4dd8f" stroke="#b4dd8f" stroke-width="1.51"/><path d="M873,128L873,280L1062,218Z" fill="#ffd58d" stroke="#ffd58d" stroke-width="1.51"/><path d="M256,1259L-49,1286L485,1312Z" fill="#997e42" stroke="#997e42" stroke-width="1.51"/><path d="M888,535L873,674L995,551Z" fill="#fafbb3" stroke="#fafbb3" stroke-width="1.51"/><path d="M888,535L995,551L999,430Z" fill="#fffbb9" stroke="#fffbb9" stroke-width="1.51"/><path d="M921,-166L823,-112L1013,-61Z" fill="#f49e6b" stroke="#f49e6b" stroke-width="1.51"/><path d="M823,-112L873,128L1013,-61Z" fill="#fbac74" stroke="#fbac74" stroke-width="1.51"/><path d="M887,339L888,535L999,430Z" fill="#fff2aa" stroke="#fff2aa" stroke-width="1.51"/><path d="M283,-248L608,-222L725,-268Z" fill="#da7047" stroke="#da7047" stroke-width="1.51"/><path d="M718,-78L785,144L823,-112Z" fill="#f9a366" stroke="#f9a366" stroke-width="1.51"/><path d="M823,-112L785,144L873,128Z" fill="#ffb172" stroke="#ffb172" stroke-width="1.51"/><path d="M873,128L785,144L873,280Z" fill="#ffca80" stroke="#ffca80" stroke-width="1.51"/><path d="M783,848L838,890L873,674Z" fill="#dee88d" stroke="#dee88d" stroke-width="1.51"/><path d="M793,703L783,848L873,674Z" fill="#e7eb92" stroke="#e7eb92" stroke-width="1.51"/><path d="M887,339L758,443L888,535Z" fill="#ffeea2" stroke="#ffeea2" stroke-width="1.51"/><path d="M787,541L873,674L888,535Z" fill="#faf6ac" stroke="#faf6ac" stroke-width="1.51"/><path d="M893,969L737,1040L913,1142Z" fill="#b3d683" stroke="#b3d683" stroke-width="1.51"/><path d="M737,1040L725,1122L913,1142Z" fill="#accc7a" stroke="#accc7a" stroke-width="1.51"/><path d="M725,-268L823,-112L921,-166Z" fill="#e89160" stroke="#e89160" stroke-width="1.51"/><path d="M785,144L754,232L873,280Z" fill="#ffce80" stroke="#ffce80" stroke-width="1.51"/><path d="M758,443L787,541L888,535Z" fill="#fff2a9" stroke="#fff2a9" stroke-width="1.51"/><path d="M725,1122L881,1238L913,1142Z" fill="#a0c87b" stroke="#a0c87b" stroke-width="1.51"/><path d="M838,890L737,1040L893,969Z" fill="#c2dc83" stroke="#c2dc83" stroke-width="1.51"/><path d="M787,541L793,703L873,674Z" fill="#f4f1a0" stroke="#f4f1a0" stroke-width="1.51"/><path d="M873,280L754,232L887,339Z" fill="#ffda8c" stroke="#ffda8c" stroke-width="1.51"/><path d="M754,232L758,443L887,339Z" fill="#ffdf8e" stroke="#ffdf8e" stroke-width="1.51"/><path d="M725,1122L744,1301L881,1238Z" fill="#9abe72" stroke="#9abe72" stroke-width="1.51"/><path d="M283,-248L472,-198L608,-222Z" fill="#db6841" stroke="#db6841" stroke-width="1.51"/><path d="M754,232L647,395L758,443Z" fill="#fedd88" stroke="#fedd88" stroke-width="1.51"/><path d="M718,-78L608,36L785,144Z" fill="#fba563" stroke="#fba563" stroke-width="1.51"/><path d="M725,-268L718,-78L823,-112Z" fill="#eb905a" stroke="#eb905a" stroke-width="1.51"/><path d="M783,848L737,1040L838,890Z" fill="#cadd80" stroke="#cadd80" stroke-width="1.51"/><path d="M608,-222L718,-78L725,-268Z" fill="#e58653" stroke="#e58653" stroke-width="1.51"/><path d="M562,786L522,1014L737,1040Z" fill="#c7cc6f" stroke="#c7cc6f" stroke-width="1.51"/><path d="M583,1257L485,1312L744,1301Z" fill="#96a45b" stroke="#96a45b" stroke-width="1.51"/><path d="M562,786L737,1040L783,848Z" fill="#d0d977" stroke="#d0d977" stroke-width="1.51"/><path d="M540,557L545,667L787,541Z" fill="#fae395" stroke="#fae395" stroke-width="1.51"/><path d="M562,786L783,848L793,703Z" fill="#e1e283" stroke="#e1e283" stroke-width="1.51"/><path d="M545,667L562,786L793,703Z" fill="#ebde82" stroke="#ebde82" stroke-width="1.51"/><path d="M787,541L545,667L793,703Z" fill="#f4ea94" stroke="#f4ea94" stroke-width="1.51"/><path d="M758,443L540,557L787,541Z" fill="#ffea9f" stroke="#ffea9f" stroke-width="1.51"/><path d="M725,1122L583,1257L744,1301Z" fill="#9ab668" stroke="#9ab668" stroke-width="1.51"/><path d="M608,36L754,232L785,144Z" fill="#feb96e" stroke="#feb96e" stroke-width="1.51"/><path d="M647,395L540,557L758,443Z" fill="#ffe192" stroke="#ffe192" stroke-width="1.51"/><path d="M532,204L647,395L754,232Z" fill="#fec978" stroke="#fec978" stroke-width="1.51"/><path d="M608,36L532,204L754,232Z" fill="#fdb469" stroke="#fdb469" stroke-width="1.51"/><path d="M580,-13L608,36L718,-78Z" fill="#f69659" stroke="#f69659" stroke-width="1.51"/><path d="M522,1014L725,1122L737,1040Z" fill="#b4c870" stroke="#b4c870" stroke-width="1.51"/><path d="M533,1174L583,1257L725,1122Z" fill="#a1b564" stroke="#a1b564" stroke-width="1.51"/><path d="M522,1014L533,1174L725,1122Z" fill="#aebc68" stroke="#aebc68" stroke-width="1.51"/><path d="M608,-222L580,-13L718,-78Z" fill="#f08951" stroke="#f08951" stroke-width="1.51"/><path d="M474,-56L580,-13L608,-222Z" fill="#ef824b" stroke="#ef824b" stroke-width="1.51"/><path d="M472,-198L474,-56L608,-222Z" fill="#e77646" stroke="#e77646" stroke-width="1.51"/><path d="M477,381L540,557L647,395Z" fill="#ffd687" stroke="#ffd687" stroke-width="1.51"/><path d="M532,204L477,381L647,395Z" fill="#fec776" stroke="#fec776" stroke-width="1.51"/><path d="M522,1014L448,1093L533,1174Z" fill="#b1b460" stroke="#b1b460" stroke-width="1.51"/><path d="M399,882L522,1014L562,786Z" fill="#d2c566" stroke="#d2c566" stroke-width="1.51"/><path d="M580,-13L412,54L608,36Z" fill="#f99254" stroke="#f99254" stroke-width="1.51"/><path d="M412,54L532,204L608,36Z" fill="#fc9d59" stroke="#fc9d59" stroke-width="1.51"/><path d="M485,1021L448,1093L522,1014Z" fill="#b9b862" stroke="#b9b862" stroke-width="1.51"/><path d="M412,54L427,196L532,204Z" fill="#fca05a" stroke="#fca05a" stroke-width="1.51"/><path d="M474,-56L412,54L580,-13Z" fill="#f5884d" stroke="#f5884d" stroke-width="1.51"/><path d="M533,1174L485,1312L583,1257Z" fill="#9ca459" stroke="#9ca459" stroke-width="1.51"/><path d="M399,882L485,1021L522,1014Z" fill="#c5bc63" stroke="#c5bc63" stroke-width="1.51"/><path d="M-133,-228L157,-205L283,-248Z" fill="#cd352d" stroke="#cd352d" stroke-width="1.51"/><path d="M427,196L477,381L532,204Z" fill="#feb667" stroke="#feb667" stroke-width="1.51"/><path d="M477,381L432,576L540,557Z" fill="#ffd48b" stroke="#ffd48b" stroke-width="1.51"/><path d="M540,557L432,576L545,667Z" fill="#fad688" stroke="#fad688" stroke-width="1.51"/><path d="M545,667L405,720L562,786Z" fill="#ebd076" stroke="#ebd076" stroke-width="1.51"/><path d="M405,720L399,882L562,786Z" fill="#e1c76b" stroke="#e1c76b" stroke-width="1.51"/><path d="M432,576L405,720L545,667Z" fill="#f4cf7c" stroke="#f4cf7c" stroke-width="1.51"/><path d="M448,1093L485,1312L533,1174Z" fill="#a2a859" stroke="#a2a859" stroke-width="1.51"/><path d="M448,1093L256,1259L485,1312Z" fill="#a09a51" stroke="#a09a51" stroke-width="1.51"/><path d="M72,1243L-49,1286L256,1259Z" fill="#95743b" stroke="#95743b" stroke-width="1.51"/><path d="M283,-248L280,-5L472,-198Z" fill="#e45f3b" stroke="#e45f3b" stroke-width="1.51"/><path d="M472,-198L280,-5L474,-56Z" fill="#ed7141" stroke="#ed7141" stroke-width="1.51"/><path d="M427,196L290,247L477,381Z" fill="#fdae63" stroke="#fdae63" stroke-width="1.51"/><path d="M274,521L432,576L477,381Z" fill="#ffc782" stroke="#ffc782" stroke-width="1.51"/><path d="M308,962L448,1093L485,1021Z" fill="#bcb25d" stroke="#bcb25d" stroke-width="1.51"/><path d="M399,882L308,962L485,1021Z" fill="#c8b55e" stroke="#c8b55e" stroke-width="1.51"/><path d="M290,247L234,349L477,381Z" fill="#fcad66" stroke="#fcad66" stroke-width="1.51"/><path d="M234,349L274,521L477,381Z" fill="#feb872" stroke="#feb872" stroke-width="1.51"/><path d="M280,-5L412,54L474,-56Z" fill="#f47b48" stroke="#f47b48" stroke-width="1.51"/><path d="M339,715L399,882L405,720Z" fill="#e4bf68" stroke="#e4bf68" stroke-width="1.51"/><path d="M339,715L405,720L432,576Z" fill="#f2c675" stroke="#f2c675" stroke-width="1.51"/><path d="M308,962L222,1104L448,1093Z" fill="#b9a456" stroke="#b9a456" stroke-width="1.51"/><path d="M222,1104L256,1259L448,1093Z" fill="#a9984f" stroke="#a9984f" stroke-width="1.51"/><path d="M339,715L290,876L399,882Z" fill="#ddb861" stroke="#ddb861" stroke-width="1.51"/><path d="M412,54L234,130L427,196Z" fill="#f98e52" stroke="#f98e52" stroke-width="1.51"/><path d="M234,130L290,247L427,196Z" fill="#fa9554" stroke="#fa9554" stroke-width="1.51"/><path d="M274,521L339,715L432,576Z" fill="#f9c47c" stroke="#f9c47c" stroke-width="1.51"/><path d="M280,-5L234,130L412,54Z" fill="#f67a48" stroke="#f67a48" stroke-width="1.51"/><path d="M290,876L308,962L399,882Z" fill="#d0b15a" stroke="#d0b15a" stroke-width="1.51"/><path d="M-133,-228L-68,-200L157,-205Z" fill="#c72527" stroke="#c72527" stroke-width="1.51"/><path d="M157,-205L152,-24L280,-5Z" fill="#e75336" stroke="#e75336" stroke-width="1.51"/><path d="M157,-205L280,-5L283,-248Z" fill="#e14e35" stroke="#e14e35" stroke-width="1.51"/><path d="M274,521L145,597L339,715Z" fill="#f8b775" stroke="#f8b775" stroke-width="1.51"/><path d="M145,597L131,719L339,715Z" fill="#efaf68" stroke="#efaf68" stroke-width="1.51"/><path d="M131,719L290,876L339,715Z" fill="#e4b060" stroke="#e4b060" stroke-width="1.51"/><path d="M234,349L173,366L274,521Z" fill="#fdab6b" stroke="#fdab6b" stroke-width="1.51"/><path d="M131,719L96,776L290,876Z" fill="#dea759" stroke="#dea759" stroke-width="1.51"/><path d="M290,876L120,1001L308,962Z" fill="#caa354" stroke="#caa354" stroke-width="1.51"/><path d="M120,1001L222,1104L308,962Z" fill="#bc9b51" stroke="#bc9b51" stroke-width="1.51"/><path d="M152,-24L234,130L280,-5Z" fill="#f26941" stroke="#f26941" stroke-width="1.51"/><path d="M234,130L167,240L290,247Z" fill="#f98d51" stroke="#f98d51" stroke-width="1.51"/><path d="M167,240L234,349L290,247Z" fill="#fa9959" stroke="#fa9959" stroke-width="1.51"/><path d="M96,776L120,1001L290,876Z" fill="#d1a150" stroke="#d1a150" stroke-width="1.51"/><path d="M152,-24L116,27L234,130Z" fill="#f0653e" stroke="#f0653e" stroke-width="1.51"/><path d="M222,1104L151,1118L256,1259Z" fill="#a78d49" stroke="#a78d49" stroke-width="1.51"/><path d="M173,366L145,597L274,521Z" fill="#fdaf75" stroke="#fdaf75" stroke-width="1.51"/><path d="M151,1118L72,1243L256,1259Z" fill="#9f8343" stroke="#9f8343" stroke-width="1.51"/><path d="M120,1001L151,1118L222,1104Z" fill="#b2914b" stroke="#b2914b" stroke-width="1.51"/><path d="M167,240L173,366L234,349Z" fill="#f99b5b" stroke="#f99b5b" stroke-width="1.51"/><path d="M116,27L167,240L234,130Z" fill="#f37847" stroke="#f37847" stroke-width="1.51"/><path d="M96,776L-27,801L120,1001Z" fill="#cf984b" stroke="#cf984b" stroke-width="1.51"/><path d="M-47,-77L152,-24L157,-205Z" fill="#de412d" stroke="#de412d" stroke-width="1.51"/><path d="M116,27L-10,71L167,240Z" fill="#ee6b40" stroke="#ee6b40" stroke-width="1.51"/><path d="M-10,71L15,268L167,240Z" fill="#ef7845" stroke="#ef7845" stroke-width="1.51"/><path d="M-67,582L145,597L173,366Z" fill="#f8a670" stroke="#f8a670" stroke-width="1.51"/><path d="M-74,350L-67,582L173,366Z" fill="#f2975f" stroke="#f2975f" stroke-width="1.51"/><path d="M15,268L-74,350L173,366Z" fill="#f18d53" stroke="#f18d53" stroke-width="1.51"/><path d="M167,240L15,268L173,366Z" fill="#f58f53" stroke="#f58f53" stroke-width="1.51"/><path d="M-67,582L-17,631L145,597Z" fill="#efa067" stroke="#efa067" stroke-width="1.51"/><path d="M-68,-200L-47,-77L157,-205Z" fill="#d12e28" stroke="#d12e28" stroke-width="1.51"/><path d="M-27,801L-19,1021L120,1001Z" fill="#c18f46" stroke="#c18f46" stroke-width="1.51"/><path d="M-17,631L131,719L145,597Z" fill="#eda464" stroke="#eda464" stroke-width="1.51"/><path d="M-21,1142L72,1243L151,1118Z" fill="#a07f40" stroke="#a07f40" stroke-width="1.51"/><path d="M120,1001L-19,1021L151,1118Z" fill="#b38c48" stroke="#b38c48" stroke-width="1.51"/><path d="M-19,1021L-21,1142L151,1118Z" fill="#aa8342" stroke="#aa8342" stroke-width="1.51"/><path d="M-47,-77L116,27L152,-24Z" fill="#e44e33" stroke="#e44e33" stroke-width="1.51"/><path d="M-74,350L-132,481L-67,582Z" fill="#e99364" stroke="#e99364" stroke-width="1.51"/><path d="M-17,631L96,776L131,719Z" fill="#e5a15a" stroke="#e5a15a" stroke-width="1.51"/><path d="M-47,-77L-10,71L116,27Z" fill="#e44d32" stroke="#e44d32" stroke-width="1.51"/><path d="M-17,631L-27,801L96,776Z" fill="#de9a54" stroke="#de9a54" stroke-width="1.51"/><path d="M-129,412L-132,481L-74,350Z" fill="#e58c5c" stroke="#e58c5c" stroke-width="1.51"/><path d="M-21,1142L-49,1286L72,1243Z" fill="#967238" stroke="#967238" stroke-width="1.51"/><path d="M-106,1237L-49,1286L-21,1142Z" fill="#916f38" stroke="#916f38" stroke-width="1.51"/><path d="M-27,801L-208,863L-19,1021Z" fill="#be8a46" stroke="#be8a46" stroke-width="1.51"/><path d="M-208,863L-223,937L-19,1021Z" fill="#b08345" stroke="#b08345" stroke-width="1.51"/><path d="M-200,698L-27,801L-17,631Z" fill="#d89455" stroke="#d89455" stroke-width="1.51"/><path d="M-142,293L-74,350L15,268Z" fill="#e7814e" stroke="#e7814e" stroke-width="1.51"/><path d="M-10,71L-179,143L15,268Z" fill="#e4673e" stroke="#e4673e" stroke-width="1.51"/><path d="M-179,143L-142,293L15,268Z" fill="#e27345" stroke="#e27345" stroke-width="1.51"/><path d="M-142,-111L-179,143L-47,-77Z" fill="#d33e30" stroke="#d33e30" stroke-width="1.51"/><path d="M-113,1165L-106,1237L-21,1142Z" fill="#93723b" stroke="#93723b" stroke-width="1.51"/><path d="M-113,1165L-21,1142L-19,1021Z" fill="#a07b3f" stroke="#a07b3f" stroke-width="1.51"/><path d="M-67,582L-200,698L-17,631Z" fill="#df9660" stroke="#df9660" stroke-width="1.51"/><path d="M-47,-77L-179,143L-10,71Z" fill="#dd4c35" stroke="#dd4c35" stroke-width="1.51"/><path d="M-68,-200L-142,-111L-47,-77Z" fill="#cc2827" stroke="#cc2827" stroke-width="1.51"/><path d="M-223,937L-113,1165L-19,1021Z" fill="#a47e42" stroke="#a47e42" stroke-width="1.51"/><path d="M-200,698L-208,863L-27,801Z" fill="#c78c4e" stroke="#c78c4e" stroke-width="1.51"/><path d="M-133,-228L-142,-111L-68,-200Z" fill="#c22027" stroke="#c22027" stroke-width="1.51"/><path d="M-132,481L-200,698L-67,582Z" fill="#e19567" stroke="#e19567" stroke-width="1.51"/><path d="M-142,293L-129,412L-74,350Z" fill="#e38553" stroke="#e38553" stroke-width="1.51"/><path d="M-113,1165L-223,937L-106,1237Z" fill="#96743f" stroke="#96743f" stroke-width="1.51"/><path d="M-179,143L-142,-111L-133,-228Z" fill="#cc322c" stroke="#cc322c" stroke-width="1.51"/><path d="M-200,698L-132,481L-129,412Z" fill="#e4956d" stroke="#e4956d" stroke-width="1.51"/><path d="M-142,293L-200,698L-129,412Z" fill="#e18e63" stroke="#e18e63" stroke-width="1.51"/><path d="M-179,143L-200,698L-142,293Z" fill="#de8556" stroke="#de8556" stroke-width="1.51"/><path d="M-223,937L-200,698L-179,143Z" fill="#d99165" stroke="#d99165" stroke-width="1.51"/><path d="M-223,937L-208,863L-200,698Z" fill="#ba8549" stroke="#ba8549" stroke-width="1.51"/></svg>